<?xml version="1.0" standalone="no"?>
<!DOCTYPE svg PUBLIC "-//W3C//DTD SVG 20010904//EN"
 "http://www.w3.org/TR/2001/REC-SVG-20010904/DTD/svg10.dtd">
<svg version="1.0" xmlns="http://www.w3.org/2000/svg"
 width="756.000000pt" height="756.000000pt" viewBox="0 0 756.000000 756.000000"
 preserveAspectRatio="xMidYMid meet">
<metadata>
Created by potrace 1.11, written by Peter Selinger 2001-2013
</metadata>
<g transform="translate(0.000000,756.000000) scale(0.100000,-0.100000)"
fill="#000000" stroke="none">
<path d="M1305 7380 c-403 -30 -762 -258 -968 -615 -93 -161 -142 -322 -158
-520 -6 -85 -9 -1157 -7 -3100 l3 -2970 463 -3 462 -2 0 500 0 500 2680 0
2680 0 0 -500 0 -500 463 2 462 3 3 2995 c2 2015 -1 3031 -8 3105 -38 408
-287 779 -649 968 -106 55 -201 90 -329 119 l-97 22 -2450 2 c-1347 1 -2495
-2 -2550 -6z m5025 -84 c244 -37 464 -149 640 -326 130 -129 223 -278 280
-448 64 -192 60 35 60 -3268 l0 -3004 -385 0 -385 0 -2 498 -3 497 -2755 0
-2755 0 -3 -497 -2 -498 -385 0 -385 0 3 3038 c3 3325 -2 3057 58 3234 136
408 504 714 934 777 33 5 1169 9 2525 10 2096 1 2479 -1 2560 -13z"/>
<path d="M560 5395 l0 -1185 3220 0 3220 0 0 1185 0 1185 -3220 0 -3220 0 0
-1185z m6370 0 l0 -1105 -3150 0 -3150 0 0 1105 0 1105 3150 0 3150 0 0 -1105z"/>
<path d="M3450 5910 l0 -380 40 0 40 0 0 209 0 210 26 20 c61 48 184 54 244
11 53 -38 60 -68 60 -270 l0 -180 40 0 40 0 0 188 c0 103 -5 204 -10 224 -13
45 -52 93 -92 114 -71 37 -193 34 -269 -5 l-39 -21 0 130 0 130 -40 0 -40 0 0
-380z"/>
<path d="M4360 6186 l0 -105 -42 -3 c-39 -3 -41 -5 -42 -36 -1 -31 0 -32 41
-32 l41 0 4 -182 c3 -161 5 -188 24 -222 27 -53 73 -76 151 -76 80 0 93 6 93
41 0 29 -1 29 -59 29 -49 0 -65 4 -88 24 l-28 24 -3 181 -4 181 91 0 91 0 0
35 0 35 -90 0 -90 0 0 105 0 105 -45 0 -45 0 0 -104z"/>
<path d="M4096 6254 c-19 -18 -21 -55 -4 -72 7 -7 24 -12 38 -12 14 0 31 5 38
12 28 28 2 88 -38 88 -10 0 -26 -7 -34 -16z"/>
<path d="M2284 6223 c3 -10 64 -169 135 -353 104 -270 133 -336 149 -338 16
-3 26 14 59 100 22 57 71 183 108 281 38 97 72 174 76 170 3 -5 53 -129 109
-277 57 -147 110 -270 118 -273 7 -3 17 -2 22 3 10 10 270 680 270 695 0 5
-19 9 -43 9 l-43 0 -99 -269 c-55 -149 -103 -267 -107 -263 -5 6 -73 179 -205
520 -3 7 -15 12 -27 10 -17 -2 -38 -48 -127 -273 -94 -237 -108 -267 -117
-245 -5 14 -41 111 -80 215 -38 105 -80 216 -92 248 l-21 57 -45 0 c-39 0 -45
-3 -40 -17z"/>
<path d="M4915 6081 c-257 -45 -308 -408 -73 -525 89 -44 219 -35 302 22 58
40 65 56 35 81 -23 19 -24 19 -44 1 -33 -31 -107 -60 -155 -60 -85 0 -168 58
-195 136 l-13 39 229 3 229 2 0 33 c0 51 -27 129 -60 175 -51 71 -158 110
-255 93z m151 -92 c36 -22 69 -75 75 -119 l4 -25 -182 -3 c-182 -2 -183 -2
-183 19 0 44 47 106 102 134 63 31 127 29 184 -6z"/>
<path d="M4090 5805 l0 -275 40 0 40 0 0 275 0 275 -40 0 -40 0 0 -275z"/>
<path d="M3032 4900 c13 -177 160 -338 384 -419 273 -99 592 -68 816 78 89 58
151 126 190 207 31 67 53 193 33 200 -6 3 -76 3 -155 2 l-144 -3 -8 -45 c-14
-88 -115 -148 -298 -177 -80 -13 -110 -14 -188 -4 -199 26 -305 89 -321 189
l-6 37 -154 3 -154 3 5 -71z"/>
<path d="M560 2740 l0 -1180 3220 0 3220 0 0 1180 0 1180 -3220 0 -3220 0 0
-1180z m6365 0 l0 -1105 -3145 0 -3145 0 -3 1095 c-1 602 0 1101 3 1108 3 10
638 12 3147 10 l3143 -3 0 -1105z"/>
<path d="M3200 3205 l0 -375 45 0 c38 0 45 3 45 20 0 25 1 25 53 -2 61 -32
194 -32 253 -1 105 56 158 141 158 253 0 150 -108 266 -259 277 -56 5 -107 -7
-187 -42 -17 -7 -18 3 -18 119 l0 126 -45 0 -44 0 -1 -375z m358 76 c72 -37
112 -104 112 -187 0 -162 -184 -250 -341 -162 l-39 22 0 147 0 147 52 26 c66
33 160 36 216 7z"/>
<path d="M5420 3475 l0 -105 -45 0 c-45 0 -45 0 -45 -35 0 -35 0 -35 45 -35
l45 0 0 -162 c1 -197 8 -233 54 -275 40 -37 85 -48 161 -38 54 6 55 7 55 40 0
33 -1 34 -34 28 -60 -10 -105 5 -126 40 -18 28 -20 51 -20 200 l0 167 90 0 90
0 0 35 0 35 -90 0 -90 0 0 105 0 105 -45 0 -45 0 0 -105z"/>
<path d="M3882 3548 c-28 -28 -2 -88 38 -88 40 0 66 60 38 88 -7 7 -24 12 -38
12 -14 0 -31 -5 -38 -12z"/>
<path d="M2019 3526 c-99 -27 -201 -112 -242 -204 -31 -72 -35 -191 -7 -264
30 -80 104 -159 188 -200 61 -30 74 -33 162 -33 81 0 103 4 151 27 31 14 75
43 98 63 l42 38 -33 27 -33 28 -44 -39 c-106 -94 -279 -88 -380 12 -136 136
-95 371 79 453 68 31 179 29 245 -6 28 -14 61 -38 74 -52 l24 -25 35 27 35 26
-44 39 c-53 47 -88 66 -154 83 -61 17 -135 17 -196 0z"/>
<path d="M2710 3371 c-53 -17 -109 -51 -135 -83 -120 -141 -80 -356 82 -438
70 -36 187 -36 261 1 l52 26 0 -24 c0 -20 5 -23 40 -23 l40 0 0 270 0 270 -40
0 c-36 0 -40 -3 -40 -25 l0 -24 -52 26 c-55 28 -160 40 -208 24z m183 -85 c75
-27 77 -32 77 -191 l0 -141 -40 -23 c-158 -89 -343 2 -343 168 0 82 41 148
116 185 39 19 138 20 190 2z"/>
<path d="M4290 3363 c-25 -8 -52 -21 -61 -29 -22 -20 -29 -17 -29 11 0 23 -4
25 -40 25 l-40 0 0 -270 0 -270 40 0 40 0 0 203 c0 183 2 206 18 220 54 49
174 64 239 30 66 -35 77 -72 81 -275 l4 -178 40 0 40 0 -4 198 c-3 188 -4 199
-28 242 -54 96 -180 135 -300 93z"/>
<path d="M4912 3362 c-187 -67 -243 -320 -101 -461 97 -97 269 -107 387 -21
48 35 52 51 17 74 -24 16 -27 16 -63 -13 -114 -91 -293 -38 -332 98 l-9 31
231 0 231 0 -6 54 c-7 65 -38 140 -75 179 -66 70 -182 94 -280 59z m205 -88
c26 -21 43 -47 55 -80 l16 -49 -180 -3 c-100 -1 -183 0 -186 2 -8 9 7 51 30
87 55 82 189 104 265 43z"/>
<path d="M3880 3100 l0 -270 40 0 40 0 0 270 0 270 -40 0 -40 0 0 -270z"/>
<path d="M3064 2288 c3 -13 8 -47 11 -77 16 -138 146 -290 315 -368 320 -147
753 -89 969 130 86 87 121 160 136 285 l6 53 -158 -3 -158 -3 -6 -43 c-14
-108 -176 -185 -394 -186 -131 -1 -229 21 -306 67 -63 38 -90 72 -98 124 l-6
38 -158 3 -158 3 5 -23z"/>
</g>
</svg>
